<svg viewBox="0 0 500 500" xmlns="http://www.w3.org/2000/svg" xmlns:xlink="http://www.w3.org/1999/xlink"><clipPath id="a"><circle cx="250" cy="250" r="250"/></clipPath><circle cx="250" cy="250" fill="#a5ccdb" r="250"/><g clip-path="url(#a)" stroke="#fff" stroke-miterlimit="10"><path d="m368.83 112.82-117.31 171.78c-4.31 7.47 1.08 16.81 9.7 16.81h234.62c8.63 0 14.02-9.34 9.7-16.81l-117.31-171.78c-4.31-7.47-15.09-7.47-19.41 0z" fill="#7694a3" stroke-width="8"/><path d="m111.77 112.82-117.31 171.78c-4.31 7.47 1.08 16.81 9.7 16.81h234.62c8.63 0 14.02-9.34 9.7-16.81l-117.31-171.78c-4.31-7.47-15.09-7.47-19.41 0z" fill="#7694a3" stroke-width="8"/><path d="m248.52 42.61-138 239.03c-5.07 8.79 1.27 19.77 11.42 19.77h276.01c10.15 0 16.49-10.98 11.42-19.77l-138.02-239.03c-5.07-8.79-17.76-8.79-22.83 0z" fill="#515f66" stroke-width="11"/><path d="m257.8 252.64c55.64 6.22 110.61 21.22 166.57 19.58s115.95-24.31 142.25-73.74c-4.29 88.64-8.57 177.28-12.86 265.92-.9 18.52-2.39 38.58-14.62 52.51-12.12 13.81-31.63 17.96-49.77 20.87-126.08 20.25-255.37 18.49-381.45-1.74-28.71-4.61-58.48-10.7-81.34-28.67-28.4-22.33-41.17-59.25-46.55-94.97-4.15-27.57-4.68-55.54-8.76-83.12-1.36-9.24-5.93-20.12.35-28.2 6.23-8.01 24.95-12.12 34.05-15.64 50.83-19.64 104.67-31.42 159.04-34.94 31.01-2 62.19-1.32 93.08 2.14z" fill="#4a8199" stroke-width="12"/><g fill="none"><path d="m-9.95 340.55c30.8 9.31 64.13 6.28 95.29-1.73s60.85-20.8 91.29-31.21c71.32-24.39 164.68-37.91 240-35.28" stroke-width="9"/><path d="m135.2 322.26c67.19-22.72 128.84-14.6 193.13-7.63 35.13 3.81 69.97 10.46 105.24 12.64s71.57-.32 104.12-14.08" stroke-width="7"/><path d="m48.82 424.44c45.52 7.56 92.35-1.53 136.02-16.43 43.67-14.91 85.15-35.56 128.2-52.16s140.87-30.63 186.96-28.44" stroke-width="9"/></g></g></svg>